version 1
nodes
  0 "joint1"  -1
  1 "joint2"   0
  2 "joint3"   1
  3 "joint4"   2
  4 "joint5"   3
  5 "joint6"   4
end
skeleton
time 1
  0 -10.000000 0.000000 0.500000 0.007412 0.052360 1.570796
  1 -0.000002 0.000001 67.501930 0.000031 -0.087263 3.140944
  2 0.000020 -0.000010 67.503204 -0.000227 0.174531 3.140286
  3 0.000650 0.000299 68.528595 0.000055 -0.174570 3.140306
  4 -0.046815 -0.008271 68.743057 0.007117 0.298698 3.139323
  5 1.163957 0.037372 66.925682 -0.001868 0.479171 -0.007811
time 2
  0 -10.000000 0.000000 0.500000 0.007412 0.052360 1.570796
  1 -0.000002 0.000001 67.501930 0.000031 -0.087263 3.140944
  2 0.000020 -0.000010 67.503204 -0.000227 0.174531 3.140286
  3 0.000650 0.000299 68.528595 0.000055 -0.174570 3.140306
  4 -0.046815 -0.008271 68.743057 0.007117 0.298698 3.139323
  5 1.163957 0.037372 66.925682 -0.001868 0.479171 -0.007811
time 3
  0 -10.000000 0.000000 0.500000 0.007412 0.036070 1.570796
  1 -0.000001 0.000001 67.501930 0.000022 -0.072138 3.141057
  2 0.000008 -0.000010 67.503212 -0.000203 0.155915 3.140428
  3 0.000972 0.000322 68.528702 0.000026 -0.151300 3.140480
  4 -0.060460 -0.009225 68.745979 0.007218 0.252191 3.139693
  5 1.539264 0.063342 66.802330 -0.001400 0.423228 -0.006777
time 4
  0 -10.000000 0.000000 0.500000 0.007412 0.019781 1.570796
  1 -0.000001 0.000001 67.501930 0.000014 -0.057012 3.141170
  2 -0.000004 -0.000010 67.503212 -0.000183 0.137298 3.140569
  3 0.001294 0.000344 68.528809 0.000002 -0.128030 3.140653
  4 -0.074105 -0.010180 68.748894 0.007301 0.205685 3.140054
  5 1.914571 0.089311 66.678978 -0.001005 0.367286 -0.005794
time 5
  0 -10.000000 0.000000 0.500000 0.007412 0.003491 1.570796
  1 -0.000000 0.000001 67.501930 0.000009 -0.041886 3.141282
  2 -0.000015 -0.000010 67.503220 -0.000165 0.118682 3.140709
  3 0.001616 0.000367 68.528908 -0.000018 -0.104760 3.140825
  4 -0.087751 -0.011134 68.751816 0.007366 0.159178 3.140407
  5 2.289878 0.115281 66.555626 -0.000676 0.311342 -0.004854
time 6
  0 -10.000000 0.000000 0.500000 0.007412 -0.012799 1.570796
  1 0.000000 0.000001 67.501930 0.000005 -0.026760 3.141394
  2 -0.000027 -0.000010 67.503220 -0.000149 0.100066 3.140849
  3 0.001938 0.000389 68.529015 -0.000034 -0.081490 3.140997
  4 -0.101396 -0.012088 68.754730 0.007414 0.112671 3.140756
  5 2.665184 0.141250 66.432266 -0.000406 0.255399 -0.003948
time 7
  0 -10.000000 0.000000 0.500000 0.007412 -0.029088 1.570796
  1 0.000001 0.000001 67.501930 0.000003 -0.011635 3.141506
  2 -0.000039 -0.000010 67.503227 -0.000137 0.081449 3.140988
  3 0.002261 0.000412 68.529121 -0.000046 -0.058220 3.141167
  4 -0.115041 -0.013043 68.757645 0.007445 0.066164 3.141101
  5 3.040491 0.167220 66.308914 -0.000191 0.199455 -0.003069
time 8
  0 -10.000000 0.000000 0.500000 0.007412 -0.045378 1.570796
  1 0.000001 0.000001 67.501930 0.000002 0.003491 -3.141567
  2 -0.000051 -0.000010 67.503227 -0.000127 0.062833 3.141127
  3 0.002583 0.000434 68.529228 -0.000053 -0.034949 3.141337
  4 -0.128687 -0.013997 68.760567 0.007461 0.019657 3.141444
  5 3.415798 0.193189 66.185562 -0.000028 0.143511 -0.002211
time 9
  0 -10.000000 0.000000 0.500000 0.007412 -0.061668 1.570796
  1 0.000002 0.000001 67.501930 0.000004 0.018617 -3.141454
  2 -0.000063 -0.000010 67.503235 -0.000119 0.044217 3.141265
  3 0.002905 0.000457 68.529335 -0.000057 -0.011679 3.141507
  4 -0.142332 -0.014951 68.763481 0.007461 -0.026849 -3.141399
  5 3.791105 0.219159 66.062210 0.000086 0.087567 -0.001367
time 10
  0 -10.000000 0.000000 0.500000 0.007412 -0.077958 1.570796
  1 0.000002 0.000001 67.501930 0.000006 0.033743 -3.141342
  2 -0.000075 -0.000010 67.503235 -0.000115 0.025600 3.141403
  3 0.003227 0.000479 68.529434 -0.000057 0.011591 -3.141508
  4 -0.155978 -0.015906 68.766403 0.007444 -0.073356 -3.141056
  5 4.166412 0.245128 65.938858 0.000152 0.031623 -0.000533
time 11
  0 -10.000000 0.000000 0.500000 0.007412 -0.094247 1.570796
  1 0.000003 0.000001 67.501930 0.000011 0.048868 -3.141230
  2 -0.000087 -0.000010 67.503242 -0.000112 0.006984 3.141541
  3 0.003549 0.000502 68.529541 -0.000053 0.034861 -3.141338
  4 -0.169623 -0.016860 68.769318 0.007412 -0.119863 -3.140711
  5 4.541719 0.271097 65.815506 0.000171 -0.024321 0.000298
time 12
  0 -10.000000 0.000000 0.500000 0.007412 -0.110537 1.570796
  1 0.000004 0.000001 67.501930 0.000017 0.063994 -3.141118
  2 -0.000099 -0.000010 67.503242 -0.000113 -0.011632 -3.141506
  3 0.003871 0.000524 68.529648 -0.000046 0.058131 -3.141168
  4 -0.183268 -0.017814 68.772232 0.007363 -0.166370 -3.140362
  5 4.917026 0.297067 65.692154 0.000144 -0.080265 0.001130
time 13
  0 -10.000000 0.000000 0.500000 0.007412 -0.126827 1.570796
  1 0.000004 0.000001 67.501930 0.000025 0.079120 -3.141005
  2 -0.000111 -0.000010 67.503250 -0.000116 -0.030249 -3.141368
  3 0.004194 0.000547 68.529755 -0.000034 0.081401 -3.140997
  4 -0.196914 -0.018769 68.775154 0.007296 -0.212877 -3.140007
  5 5.292333 0.323036 65.568802 0.000070 -0.136209 0.001968
time 14
  0 -10.000000 0.000000 0.500000 0.007412 -0.143117 1.570796
  1 0.000005 0.000001 67.501930 0.000035 0.094246 -3.140892
  2 -0.000123 -0.000011 67.503250 -0.000121 -0.048865 -3.141230
  3 0.004516 0.000569 68.529861 -0.000018 0.104671 -3.140826
  4 -0.210559 -0.019723 68.778069 0.007213 -0.259384 -3.139645
  5 5.667640 0.349006 65.445442 -0.000052 -0.192153 0.002819
time 15
  0 -10.000000 0.000000 0.500000 0.007412 -0.159406 1.570796
  1 0.000005 0.000001 67.501930 0.000047 0.109371 -3.140779
  2 -0.000135 -0.000011 67.503258 -0.000129 -0.067481 -3.141092
  3 0.004838 0.000592 68.529961 0.000002 0.127941 -3.140654
  4 -0.224204 -0.020678 68.780991 0.007110 -0.305890 -3.139274
  5 6.042947 0.374975 65.322090 -0.000226 -0.248097 0.003687
time 16
  0 -10.000000 0.000000 0.500000 0.007412 -0.175696 1.570796
  1 0.000006 0.000001 67.501930 0.000060 0.124497 -3.140665
  2 -0.000147 -0.000011 67.503258 -0.000140 -0.086098 -3.140953
  3 0.005160 0.000614 68.530067 0.000026 0.151212 -3.140481
  4 -0.237850 -0.021632 68.783905 0.006987 -0.352397 -3.138893
  5 6.418254 0.400945 65.198738 -0.000453 -0.304041 0.004579
end
